<?xml version="1.0" encoding="UTF-8"?>
<svg xmlns="http://www.w3.org/2000/svg" viewBox="-49 -8 255 251" preserveAspectRatio="xMidYMid meet">
  <path d="M0,0 L112,0 L115,3 L115,18 L121,18 L121,79 L120,80 L115,80 L115,76 L53,76 L54,84 L87,83 L99,82 L110,82 L110,84 L115,85 L115,91 L120,91 L121,92 L121,156 L58,157 L57,234 L56,235 L-23,235 L-24,234 L-24,224 L-28,224 L-29,218 L-36,217 L-36,37 L-29,30 L-25,25 L-23,25 L-21,21 L-10,10 L-9,8 L-7,8 L-5,4 Z" fill="#0058F8" transform="translate(36,0)"/>
  <path d="M0,0 L112,0 L115,3 L115,11 L5,12 L-12,29 L-19,37 L-22,40 L-25,46 L-27,48 L-28,218 L-34,218 L-36,217 L-36,37 L-29,30 L-25,25 L-23,25 L-21,21 L-10,10 L-9,8 L-7,8 L-5,4 Z" fill="#0BFAFD" transform="translate(36,0)"/>
  <path d="M0,0 L5,0 L6,1 L6,64 L-57,66 L-58,143 L-59,144 L-138,144 L-139,143 L-139,133 L-66,133 L-66,56 L-65,55 L0,55 Z" fill="#FA187A" transform="translate(151,91)"/>
</svg>
