<?xml version="1.0" encoding="UTF-8"?>
<!-- Generator: visioncortex VTracer 0.6.12 -->
<svg version="1.1" xmlns="http://www.w3.org/2000/svg" viewBox="-8 -8 1194 252" preserveAspectRatio="xMidYMid meet">
<path d="M0,0 L70,0 L79,11 L88,23 L96,33 L99,37 L101,43 L106,39 L113,30 L115,30 L117,26 L129,11 L138,0 L205,0 L206,1 L207,18 L212,18 L213,24 L212,224 L214,226 L214,234 L213,235 L131,235 L130,234 L130,224 L126,224 L126,217 L121,217 L120,203 L110,214 L109,216 L105,215 L93,202 L85,192 L84,191 L83,235 L2,235 L1,234 L1,224 L-3,224 L-4,218 L-7,217 L-7,151 L-9,138 L-9,7 Z " fill="#0058F8" transform="translate(448,0)"/>
<path d="M0,0 L123,0 L130,3 L137,11 L149,24 L156,32 L158,35 L159,43 L164,49 L165,133 L151,147 L149,147 L149,149 L153,151 L158,156 L159,165 L163,167 L164,168 L165,225 L166,226 L166,233 L165,235 L114,235 L92,213 L88,208 L83,203 L71,191 L69,190 L69,234 L62,236 L-2,235 L-3,233 L-2,224 L-6,224 L-6,217 L-10,216 L-10,94 L-9,85 L-10,84 L-10,8 L-9,6 L-5,6 L-5,1 Z M68,71 L68,98 L90,98 L91,97 L92,86 L92,71 Z " fill="#0058F8" transform="translate(841,0)"/>
<path d="M0,0 L109,0 L110,1 L111,17 L115,18 L115,79 L110,80 L110,76 L49,76 L49,79 L53,81 L53,84 L109,83 L110,84 L110,91 L115,92 L116,154 L114,156 L110,156 L109,152 L48,152 L49,156 L53,157 L53,159 L108,158 L110,159 L110,167 L115,168 L115,203 L114,225 L116,225 L116,235 L-34,235 L-35,233 L-35,224 L-38,224 L-39,217 L-42,216 L-42,104 L-41,37 L-25,20 L-10,5 L-7,1 Z " fill="#0058F8" transform="translate(709,0)"/>
<path d="M0,0 L119,0 L124,4 L133,15 L143,26 L149,34 L150,42 L158,51 L158,150 L131,177 L129,178 L82,178 L82,233 L80,235 L1,235 L0,234 L0,224 L-4,224 L-5,218 L-7,217 L-8,125 L-8,65 L-7,6 L-2,6 L-2,1 Z M66,71 L65,101 L66,102 L86,102 L91,103 L90,100 L89,71 Z " fill="#0058F8" transform="translate(1020,0)"/>
<path d="M0,0 L112,0 L115,3 L115,18 L121,18 L121,79 L120,80 L115,80 L115,76 L53,76 L54,84 L87,83 L99,82 L110,82 L110,84 L115,85 L115,91 L120,91 L121,92 L121,156 L58,157 L57,234 L56,235 L-23,235 L-24,234 L-24,224 L-28,224 L-29,218 L-36,217 L-36,37 L-29,30 L-25,25 L-23,25 L-21,21 L-10,10 L-9,8 L-7,8 L-5,4 Z " fill="#0058F8" transform="translate(36,0)"/>
<path d="M0,0 L74,0 L75,1 L75,10 L80,10 L81,11 L81,18 L86,18 L86,142 L161,141 L168,142 L169,147 L171,148 L171,156 L176,156 L176,223 L177,225 L177,235 L2,235 L1,234 L1,224 L-3,224 L-3,217 L-7,216 L-7,6 L-2,6 L-2,1 Z " fill="#0058F8" transform="translate(258,0)"/>
<path d="M0,0 L67,0 L69,2 L71,17 L76,18 L76,105 L75,224 L76,225 L76,235 L3,235 L2,233 L2,224 L-1,224 L-2,217 L-7,218 L-8,217 L-8,150 L-6,148 L-6,87 L-7,86 L-7,76 L-6,75 L-5,63 L-5,39 L-6,6 L-2,1 Z " fill="#0058F8" transform="translate(169,0)"/>
<path d="M0,0 L7,6 L9,9 L9,108 L-18,135 L-20,136 L-67,136 L-67,191 L-69,193 L-148,193 L-149,192 L-149,182 L-76,182 L-76,127 L-75,126 L-28,125 L-14,112 L-9,107 L-1,99 Z " fill="#FA187A" transform="translate(1169,42)"/>
<path d="M0,0 L112,0 L115,3 L115,11 L5,12 L-12,29 L-19,37 L-22,40 L-25,46 L-27,48 L-28,218 L-34,218 L-36,217 L-36,37 L-29,30 L-25,25 L-23,25 L-21,21 L-10,10 L-9,8 L-7,8 L-5,4 Z " fill="#0BFAFD" transform="translate(36,0)"/>
<path d="M0,0 L123,0 L130,3 L137,11 L149,24 L156,32 L158,35 L158,42 L151,36 L140,24 L129,12 L3,12 L-3,17 L-4,50 L-5,212 L-6,217 L-10,216 L-10,94 L-9,85 L-10,84 L-10,8 L-9,6 L-5,6 L-5,1 Z " fill="#0BFAFD" transform="translate(841,0)"/>
<path d="M0,0 L119,0 L124,4 L133,15 L143,26 L149,34 L149,42 L142,36 L129,22 L129,20 L125,18 L120,12 L-3,11 L-3,216 L-5,218 L-7,217 L-8,125 L-8,65 L-7,6 L-2,6 L-2,1 Z " fill="#0BFAFD" transform="translate(1020,0)"/>
<path d="M0,0 L109,0 L110,1 L110,11 L-6,12 L-20,27 L-29,36 L-32,45 L-36,49 L-37,213 L-38,219 L-39,217 L-42,216 L-42,104 L-41,37 L-25,20 L-10,5 L-7,1 Z " fill="#0BFAFD" transform="translate(709,0)"/>
<path d="M0,0 L5,0 L6,1 L6,65 L-57,66 L-58,143 L-59,144 L-138,144 L-139,143 L-139,133 L-66,133 L-66,56 L-65,55 L0,55 Z " fill="#FA187A" transform="translate(151,91)"/>
<path d="M0,0 L4,2 L5,3 L6,60 L7,61 L7,68 L6,70 L-45,70 L-67,48 L-71,43 L-76,38 L-88,26 L-90,25 L-90,69 L-97,71 L-161,70 L-162,68 L-161,59 L-97,59 L-97,10 L-93,12 L-79,26 L-72,34 L-63,43 L-63,45 L-59,47 L-57,51 L-55,51 L-49,58 L-1,58 Z " fill="#FA187A" transform="translate(1000,165)"/>
<path d="M0,0 L70,0 L79,11 L88,23 L96,33 L99,37 L100,43 L95,38 L83,24 L74,12 L7,11 L2,16 L0,18 L-1,44 L-2,215 L-4,218 L-7,217 L-7,151 L-9,138 L-9,7 Z " fill="#0BFAFD" transform="translate(448,0)"/>
<path d="M0,0 L5,0 L5,67 L6,69 L6,79 L-169,79 L-170,78 L-170,68 L0,68 Z " fill="#FA187A" transform="translate(429,156)"/>
<path d="M0,0 L67,0 L69,2 L69,10 L68,11 L17,11 L8,12 L1,19 L-1,219 L-2,217 L-7,218 L-8,217 L-8,150 L-6,148 L-6,87 L-7,86 L-7,76 L-6,75 L-5,63 L-5,39 L-6,6 L-2,1 Z " fill="#0BFAFD" transform="translate(169,0)"/>
<path d="M0,0 L74,0 L75,1 L75,10 L72,11 L6,11 L5,14 L3,14 L3,16 L0,18 L-1,56 L-2,215 L-3,217 L-7,216 L-7,6 L-2,6 L-2,1 Z " fill="#0BFAFD" transform="translate(258,0)"/>
<path d="M0,0 L5,0 L6,6 L5,206 L7,208 L7,216 L6,217 L-76,217 L-77,216 L-77,206 L0,206 Z " fill="#FA187A" transform="translate(655,18)"/>
<path d="M0,0 L5,1 L5,36 L4,58 L6,58 L6,68 L-144,68 L-145,66 L-145,58 L-144,57 L-1,56 Z " fill="#FA187A" transform="translate(819,167)"/>
<path d="M0,0 L5,0 L6,1 L6,88 L5,207 L6,208 L6,218 L-67,218 L-68,216 L-68,207 L0,207 Z " fill="#FA187A" transform="translate(239,17)"/>
<path d="M0,0 L5,5 L15,16 L22,25 L22,27 L26,28 L28,24 L39,11 L44,6 L46,8 L47,20 L42,28 L33,38 L32,40 L28,39 L16,26 L8,16 L7,15 L6,59 L-75,59 L-76,58 L-76,48 L0,48 Z " fill="#FA187A" transform="translate(525,176)"/>
<path d="M0,0 L67,0 L68,1 L68,10 L67,11 L2,12 L-7,21 L-14,29 L-25,41 L-32,49 L-36,47 L-37,44 L-26,32 L-25,30 L-23,30 L-21,26 L-9,11 Z " fill="#0BFAFD" transform="translate(586,0)"/>
<path d="M0,0 L6,0 L6,61 L5,62 L0,62 L0,58 L-62,58 L-63,62 L-66,61 L-66,53 L-65,52 L0,52 Z " fill="#FA187A" transform="translate(151,18)"/>
<path d="M0,0 L5,5 L6,89 L-8,103 L-11,104 L-16,99 L-19,96 L-17,92 L-2,77 L-1,75 Z " fill="#FA187A" transform="translate(1000,44)"/>
<path d="M0,0 L4,1 L4,62 L-1,63 L-1,59 L-63,59 L-62,54 L-61,53 L-1,53 L-1,1 Z " fill="#FA187A" transform="translate(820,17)"/>
<path d="M0,0 L5,1 L6,63 L4,65 L0,65 L-1,61 L-62,61 L-62,56 L-61,55 L0,55 Z " fill="#FA187A" transform="translate(819,91)"/>
<path d="M0,0 L5,0 L5,124 L0,123 Z " fill="#FA187A" transform="translate(339,18)"/>
<path d="M0,0 L14,1 L15,7 L-68,7 L-68,1 Z " fill="#0BFAFD" transform="translate(412,141)"/>
<path d="M0,0 L27,0 L28,5 L5,5 L5,33 L1,35 L0,34 Z " fill="#FA187A" transform="translate(1081,66)"/>
<path d="M0,0 L17,0 L24,2 L24,6 L0,6 L0,33 L-4,32 L-4,1 Z " fill="#FA187A" transform="translate(909,65)"/>
<path d="M0,0 L4,1 L4,29 L-23,29 L-23,25 L-1,24 L0,13 Z " fill="#0BFAFD" transform="translate(932,73)"/>
<path d="M0,0 L21,0 L26,2 L26,5 L0,5 Z " fill="#0BFAFD" transform="translate(1085,101)"/>
<path d="M0,0 L1,0 L1,21 L-4,21 L-4,4 Z " fill="#0AF8FC" transform="translate(573,196)"/>
<path d="M0,0 L11,0 L10,3 L-45,3 L-45,2 L-12,1 Z " fill="#0BFAFD" transform="translate(135,82)"/>
<path d="M0,0 L5,3 L10,8 L10,14 L3,8 L-1,4 Z " fill="#0BFAFD" transform="translate(989,148)"/>
</svg>
