<svg xmlns="http://www.w3.org/2000/svg">
  <!-- Lucide Icons v1.8.0, ISC License -->
  <symbol id="layout-dashboard" viewBox="0 0 24 24">
    <rect width="7" height="9" x="3" y="3" rx="1"/>
    <rect width="7" height="5" x="14" y="3" rx="1"/>
    <rect width="7" height="9" x="14" y="12" rx="1"/>
    <rect width="7" height="5" x="3" y="16" rx="1"/>
  </symbol>
  <symbol id="file-text" viewBox="0 0 24 24">
    <path d="M6 22a2 2 0 0 1-2-2V4a2 2 0 0 1 2-2h8a2.4 2.4 0 0 1 1.704.706l3.588 3.588A2.4 2.4 0 0 1 20 8v12a2 2 0 0 1-2 2z"/>
    <path d="M14 2v5a1 1 0 0 0 1 1h5"/>
    <path d="M10 9H8"/><path d="M16 13H8"/><path d="M16 17H8"/>
  </symbol>
  <symbol id="clapperboard" viewBox="0 0 24 24">
    <path d="m12.296 3.464 3.02 3.956"/>
    <path d="M20.2 6 3 11l-.9-2.4c-.3-1.1.3-2.2 1.3-2.5l13.5-4c1.1-.3 2.2.3 2.5 1.3z"/>
    <path d="M3 11h18v8a2 2 0 0 1-2 2H5a2 2 0 0 1-2-2z"/>
    <path d="m6.18 5.276 3.1 3.899"/>
  </symbol>
  <symbol id="globe" viewBox="0 0 24 24">
    <circle cx="12" cy="12" r="10"/>
    <path d="M12 2a14.5 14.5 0 0 0 0 20 14.5 14.5 0 0 0 0-20"/>
    <path d="M2 12h20"/>
  </symbol>
  <symbol id="chart-no-axes-combined" viewBox="0 0 24 24">
    <path d="M12 16v5"/><path d="M16 14v7"/><path d="M20 10v11"/>
    <path d="m22 3-8.646 8.646a.5.5 0 0 1-.708 0L9.354 8.354a.5.5 0 0 0-.707 0L2 15"/>
    <path d="M4 18v3"/><path d="M8 14v7"/>
  </symbol>
  <symbol id="calculator" viewBox="0 0 24 24">
    <rect width="16" height="20" x="4" y="2" rx="2"/>
    <line x1="8" x2="16" y1="6" y2="6"/><line x1="16" x2="16" y1="14" y2="18"/>
    <path d="M16 10h.01"/><path d="M12 10h.01"/><path d="M8 10h.01"/>
    <path d="M12 14h.01"/><path d="M8 14h.01"/><path d="M12 18h.01"/><path d="M8 18h.01"/>
  </symbol>
  <symbol id="receipt-text" viewBox="0 0 24 24">
    <path d="M13 16H8"/><path d="M14 8H8"/><path d="M16 12H8"/>
    <path d="M4 3a1 1 0 0 1 1-1 1.3 1.3 0 0 1 .7.2l.933.6a1.3 1.3 0 0 0 1.4 0l.934-.6a1.3 1.3 0 0 1 1.4 0l.933.6a1.3 1.3 0 0 0 1.4 0l.933-.6a1.3 1.3 0 0 1 1.4 0l.934.6a1.3 1.3 0 0 0 1.4 0l.933-.6A1.3 1.3 0 0 1 19 2a1 1 0 0 1 1 1v18a1 1 0 0 1-1 1 1.3 1.3 0 0 1-.7-.2l-.933-.6a1.3 1.3 0 0 0-1.4 0l-.934.6a1.3 1.3 0 0 1-1.4 0l-.933-.6a1.3 1.3 0 0 0-1.4 0l-.933.6a1.3 1.3 0 0 1-1.4 0l-.934-.6a1.3 1.3 0 0 0-1.4 0l-.933.6a1.3 1.3 0 0 1-.7.2 1 1 0 0 1-1-1z"/>
  </symbol>
  <symbol id="settings" viewBox="0 0 24 24">
    <path d="M9.671 4.136a2.34 2.34 0 0 1 4.659 0 2.34 2.34 0 0 0 3.319 1.915 2.34 2.34 0 0 1 2.33 4.033 2.34 2.34 0 0 0 0 3.831 2.34 2.34 0 0 1-2.33 4.033 2.34 2.34 0 0 0-3.319 1.915 2.34 2.34 0 0 1-4.659 0 2.34 2.34 0 0 0-3.32-1.915 2.34 2.34 0 0 1-2.33-4.033 2.34 2.34 0 0 0 0-3.831A2.34 2.34 0 0 1 6.35 6.051a2.34 2.34 0 0 0 3.319-1.915"/>
    <circle cx="12" cy="12" r="3"/>
  </symbol>
  <symbol id="database" viewBox="0 0 24 24">
    <ellipse cx="12" cy="5" rx="9" ry="3"/>
    <path d="M3 5v14c0 1.7 4 3 9 3s9-1.3 9-3V5"/>
    <path d="M3 12c0 1.7 4 3 9 3s9-1.3 9-3"/>
  </symbol>
  <symbol id="users" viewBox="0 0 24 24">
    <path d="M16 21v-2a4 4 0 0 0-4-4H6a4 4 0 0 0-4 4v2"/>
    <circle cx="9" cy="7" r="4"/>
    <path d="M22 21v-2a4 4 0 0 0-3-3.87"/>
    <path d="M16 3.13a4 4 0 0 1 0 7.75"/>
  </symbol>
  <symbol id="lock-keyhole" viewBox="0 0 24 24">
    <circle cx="12" cy="16" r="1"/>
    <rect width="18" height="12" x="3" y="10" rx="2"/>
    <path d="M7 10V7a5 5 0 0 1 10 0v3"/>
  </symbol>
  <symbol id="panel-left-close" viewBox="0 0 24 24">
    <rect width="18" height="18" x="3" y="3" rx="2"/><path d="M9 3v18"/><path d="m16 15-3-3 3-3"/>
  </symbol>
  <symbol id="panel-left-open" viewBox="0 0 24 24">
    <rect width="18" height="18" x="3" y="3" rx="2"/><path d="M9 3v18"/><path d="m14 9 3 3-3 3"/>
  </symbol>
  <symbol id="menu" viewBox="0 0 24 24">
    <path d="M4 5h16"/><path d="M4 12h16"/><path d="M4 19h16"/>
  </symbol>
  <symbol id="x" viewBox="0 0 24 24">
    <path d="M18 6 6 18"/><path d="m6 6 12 12"/>
  </symbol>
  <symbol id="log-out" viewBox="0 0 24 24">
    <path d="m16 17 5-5-5-5"/><path d="M21 12H9"/><path d="M9 21H5a2 2 0 0 1-2-2V5a2 2 0 0 1 2-2h4"/>
  </symbol>
</svg>
